<svg width="20" height="16" viewBox="0 0 20 16" fill="none" xmlns="http://www.w3.org/2000/svg">
<g clip-path="url(#clip0_0_15532)">
<mask id="mask0_0_15532" style="mask-type:luminance" maskUnits="userSpaceOnUse" x="0" y="0" width="21" height="16">
<path d="M0 0.5H20.0002V15.5H0V0.5Z" fill="white"/>
</mask>
<g mask="url(#mask0_0_15532)">
<path fill-rule="evenodd" clip-rule="evenodd" d="M0 0.5H30.0032V10.4639H0V0.5Z" fill="#B20000"/>
<path fill-rule="evenodd" clip-rule="evenodd" d="M0 10.4639H30.0032V15.5H0V10.4639Z" fill="#429F00"/>
<path fill-rule="evenodd" clip-rule="evenodd" d="M0 0.5H3.32262V15.5H0V0.5Z" fill="white"/>
<path fill-rule="evenodd" clip-rule="evenodd" d="M0.158203 0.754883H0.316423V1.00977H0.158203V0.754883ZM0.632863 0.754883H1.10752V1.00977H0.632863V0.754883ZM0.791083 0.5H0.949303V0.754883H0.791083V0.5ZM1.58218 0.5H1.7404V0.754883H1.58218V0.5ZM2.21506 0.754883H2.68972V1.00977H2.21506V0.754883ZM2.37328 0.5H2.5315V0.754883H2.37328V0.5ZM0.474643 1.00977H0.791083V1.26172H0.474643V1.00977ZM0.949303 1.00977H1.26574V1.26172H0.949303V1.00977ZM2.05684 1.00977H2.37328V1.26172H2.05684V1.00977ZM2.5315 1.00977H2.84794V1.26172H2.5315V1.00977ZM0.316423 1.26172H0.632863V1.5166H0.316423V1.26172ZM1.10752 1.26172H1.42396V1.5166H1.10752V1.26172ZM1.89862 1.26172H2.21506V1.5166H1.89862V1.26172ZM2.68972 1.26172H3.00616V1.5166H2.68972V1.26172ZM3.00616 0.754883H3.16438V1.00977H3.00616V0.754883ZM0.158203 1.5166H0.474643V1.77148H0.158203V1.5166ZM1.26574 1.5166H1.58218V1.77148H1.26574V1.5166ZM2.84794 1.5166H3.16438V1.77148H2.84794V1.5166ZM0.316423 2.27832H0.632863V2.5332H0.316423V2.27832ZM0.474643 2.5332H0.791083V2.78809H0.474643V2.5332ZM1.10752 2.28125H1.42396V2.5332H1.10752V2.28125ZM0.949303 2.5332H1.26574V2.78809H0.949303V2.5332ZM0.632863 2.78809H1.10752V3.04297H0.632863V2.78809Z" fill="#B20000"/>
<path fill-rule="evenodd" clip-rule="evenodd" d="M0.7911 3.04297H0.94932V3.29785H0.7911V3.04297ZM1.89864 2.28125H2.21508V2.5332H1.89864V2.28125ZM2.05686 2.5332H2.3733V2.78809H2.05686V2.5332ZM2.68974 2.28125H3.00618V2.5332H2.68974V2.28125ZM2.53152 2.5332H2.84796V2.78809H2.53152V2.5332ZM2.21508 2.78809H2.68974V3.04297H2.21508V2.78809ZM2.3733 3.04297H2.53152V3.29785H2.3733V3.04297ZM1.5822 2.78516H1.74042V3.04004H1.5822V2.78516ZM0 2.78516H0.15822V3.04004H0V2.78516ZM3.1644 2.78516H3.32262V3.04004H3.1644V2.78516ZM0.7911 4.05664H0.94932V4.31152H0.7911V4.05664ZM0.63288 4.31445H1.10754V4.56641H0.63288V4.31445ZM0.47466 4.56641H1.26576V4.82129H0.47466V4.56641ZM2.3733 4.05957H2.53152V4.31445H2.3733V4.05957ZM2.21508 4.31445H2.68974V4.56641H2.21508V4.31445ZM2.05686 4.56641H2.84796V4.82129H2.05686V4.56641ZM2.21508 5.83789H3.00618V6.09277H2.21508V5.83789ZM1.89864 4.82129H3.00618V5.07617H1.89864V4.82129ZM0.31644 4.82129H1.42398V5.07617H0.31644V4.82129ZM0.47466 6.09277H0.94932V6.34766H0.47466V6.09277ZM0.31644 5.83789H1.10754V6.09277H0.31644V5.83789ZM2.53152 5.33398H3.32262V5.58887H2.53152V5.33398ZM2.3733 6.0957H2.84796V6.35059H2.3733V6.0957Z" fill="#B20000"/>
<path fill-rule="evenodd" clip-rule="evenodd" d="M0.63288 6.34766H0.7911V6.60254H0.63288V6.34766ZM2.53152 6.34766H2.68974V6.60254H2.53152V6.34766ZM0 5.33105H0.7911V5.58594H0V5.33105ZM1.42398 5.83789H1.89864V6.09277H1.42398V5.83789ZM1.5822 6.0957H1.74042V6.35059H1.5822V6.0957ZM1.10754 5.33398H2.21508V5.58887H1.10754V5.33398ZM1.74042 1.5166H2.05686V1.77148H1.74042V1.5166ZM1.42398 1.77148H1.89864V2.02637H1.42398V1.77148ZM1.26576 2.02637H1.5822V2.27832H1.26576V2.02637ZM1.74042 2.02637H2.05686V2.27832H1.74042V2.02637ZM0 1.77148H0.31644V2.02637H0V1.77148ZM0.15822 2.02637H0.47466V2.27832H0.15822V2.02637ZM3.00618 1.77148H3.32262V2.02344H3.00618V1.77148ZM2.84796 2.02344H3.1644V2.27539H2.84796V2.02344ZM0 4.30859H0.15822V4.56348H0V4.30859ZM3.1644 4.30859H3.32262V4.56348H3.1644V4.30859ZM1.42398 6.34473H1.89864V6.59961H1.42398V6.34473ZM1.26576 6.59961H1.5822V6.85156H1.26576V6.59961ZM1.74042 6.59961H2.05686V6.85156H1.74042V6.59961ZM1.10754 6.85156H1.42398V7.10645H1.10754V6.85156ZM1.89864 6.85156H2.21508V7.10645H1.89864V6.85156ZM0.94932 7.10645H1.26576V7.36133H0.94932V7.10645ZM2.05686 7.10645H2.3733V7.36133H2.05686V7.10645ZM0.7911 7.36426H1.10754V7.61914H0.7911V7.36426ZM2.21508 7.36426H2.53152V7.61914H2.21508V7.36426ZM0.47466 7.61914H0.94932V7.87402H0.47466V7.61914ZM2.3733 7.61914H2.84796V7.87402H2.3733V7.61914ZM2.68974 7.36426H3.00618V7.61914H2.68974V7.36426ZM2.84796 7.10938H3.1644V7.36426H2.84796V7.10938ZM3.00618 6.85449H3.32262V7.10938H3.00618V6.85449ZM0.31644 7.36426H0.63288V7.61914H0.31644V7.36426ZM0.15822 7.10938H0.47466V7.36426H0.15822V7.10938ZM0 6.85742H0.31644V7.1123H0V6.85742ZM0.63288 7.87695H0.7911V8.12891H0.63288V7.87695ZM2.53152 7.87695H2.68974V8.12891H2.53152V7.87695ZM1.5822 7.11523H1.74042V7.36719H1.5822V7.11523ZM1.10754 7.87695H1.26576V8.12891H1.10754V7.87695ZM2.05686 7.87695H2.21508V8.12891H2.05686V7.87695ZM1.5822 7.87695H1.74042V8.12891H1.5822V7.87695ZM0 7.87695H0.15822V8.12891H0L0 7.87695ZM3.1644 7.87695H3.32262V8.12891H3.1644V7.87695ZM1.5822 4.31445H1.74042V4.56641H1.5822V4.31445ZM0.7911 1.77148H0.94932V2.02637H0.7911V1.77148ZM2.3733 1.77148H2.53152V2.02637H2.3733V1.77148ZM1.42398 3.5498H1.89864V3.80469H1.42398V3.5498ZM1.10754 3.80469H1.5822V4.05957H1.10754V3.80469ZM1.26576 4.05957H1.42398V4.31445H1.26576V4.05957ZM0.94932 3.5498H1.26576V3.80469H0.94932V3.5498ZM1.10754 3.29785H1.5822V3.5498H1.10754V3.29785ZM1.26576 3.04297H1.42398V3.29785H1.26576V3.04297ZM1.74042 3.29785H2.21508V3.5498H1.74042V3.29785ZM1.89864 3.04297H2.05686V3.29785H1.89864V3.04297ZM2.05686 3.5498H2.3733V3.80469H2.05686V3.5498ZM1.74042 3.80469H2.21508V4.05957H1.74042V3.80469ZM1.89864 4.05957H2.05686V4.31445H1.89864V4.05957ZM2.53152 3.5498H2.84796V3.80469H2.53152V3.5498ZM2.68974 3.29785H3.1644V3.5498H2.68974V3.29785ZM3.00618 3.5498H3.32262V3.80469H3.00618V3.5498ZM2.68974 3.80469H3.1644V4.05957H2.68974V3.80469ZM2.84796 4.05957H3.00618V4.31445H2.84796V4.05957ZM2.84796 3.04297H3.00618V3.29785H2.84796V3.04297ZM0 3.54688H0.31644V3.80176H0V3.54688ZM0.15822 3.29492H0.63288V3.54688H0.15822V3.29492ZM0.47466 3.54688H0.7911V3.80176H0.47466V3.54688ZM0.15822 3.80176H0.63288V4.05664H0.15822V3.80176Z" fill="#B20000"/>
<path fill-rule="evenodd" clip-rule="evenodd" d="M0.31644 4.05957H0.47466V4.31445H0.31644V4.05957ZM0.31644 3.04297H0.47466V3.29785H0.31644V3.04297ZM0.15822 5.07617H0.7911V5.33105H0.15822V5.07617ZM0.94932 5.07617H1.5822V5.33105H0.94932V5.07617ZM1.74042 5.07617H2.3733V5.33105H1.74042V5.07617ZM2.53152 5.07617H3.1644V5.33105H2.53152V5.07617ZM1.26576 5.58594H2.05686V5.83789H1.26576V5.58594ZM0.15822 5.58594H0.94932V5.83789H0.15822V5.58594ZM2.3733 5.58594H3.1644V5.83789H2.3733V5.58594ZM3.1644 6.60254H3.32262V6.85449H3.1644V6.60254ZM0 6.60254H0.15822V6.85449H0V6.60254ZM0.15822 15.2451H0.31644V14.9932H0.15822V15.2451ZM0.63288 15.2451H1.10754V14.9932H0.63288V15.2451ZM0.7911 15.5H0.94932V15.2451H0.7911V15.5ZM1.5822 15.5H1.74042V15.2451H1.5822V15.5ZM2.21508 15.2451H2.68974V14.9902H2.21508V15.2451ZM2.3733 15.5H2.53152V15.2451H2.3733V15.5ZM0.47466 14.9902H0.7911V14.7383H0.47466V14.9902ZM0.94932 14.9902H1.26576V14.7383H0.94932V14.9902ZM2.05686 14.9902H2.3733V14.7383H2.05686V14.9902ZM2.53152 14.9902H2.84796V14.7383H2.53152V14.9902ZM1.10754 14.7383H1.42398V14.4834H1.10754V14.7383ZM1.89864 14.7383H2.21508V14.4834H1.89864V14.7383ZM2.68974 14.7383H3.00618V14.4834H2.68974V14.7383ZM3.00618 15.2451H3.1644V14.9902H3.00618V15.2451ZM0.15822 14.4834H0.47466V14.2285H0.15822V14.4834ZM1.26576 14.4834H1.5822V14.2285H1.26576V14.4834ZM2.84796 14.4834H3.1644V14.2285H2.84796V14.4834ZM0.31644 13.7217H0.63288V13.4668H0.31644V13.7217ZM0.47466 13.4668H0.7911V13.2119H0.47466V13.4668ZM1.10754 13.7217H1.42398V13.4668H1.10754V13.7217ZM0.94932 13.4668H1.26576V13.2119H0.94932V13.4668ZM0.63288 13.2119H1.10754V12.957H0.63288V13.2119ZM0.7911 12.957H0.94932V12.7051H0.7911V12.957ZM1.89864 13.7188H2.21508V13.4668H1.89864V13.7188ZM2.05686 13.4668H2.3733V13.2119H2.05686V13.4668ZM2.68974 13.7217H3.00618V13.4668H2.68974V13.7217ZM2.53152 13.4668H2.84796V13.2119H2.53152V13.4668ZM2.21508 13.2119H2.68974V12.957H2.21508V13.2119ZM2.3733 12.957H2.53152V12.7051H2.3733V12.957ZM1.5822 13.2148H1.74042V12.96H1.5822V13.2148ZM0 13.2148H0.15822V12.96H0V13.2148ZM3.1644 13.2148H3.32262V12.96H3.1644V13.2148ZM0.7911 11.9434H0.94932V11.6885H0.7911V11.9434ZM0.63288 11.6855H1.10754V11.4336H0.63288V11.6855ZM0.47466 11.4336H1.26576V11.1787H0.47466V11.4336ZM2.3733 11.9404H2.53152V11.6855H2.3733V11.9404Z" fill="#B20000"/>
<path fill-rule="evenodd" clip-rule="evenodd" d="M2.21508 11.6855H2.68974V11.4336H2.21508V11.6855ZM2.05686 11.4336H2.84796V11.1787H2.05686V11.4336ZM2.21508 10.1621H3.00618V9.9043H2.21508V10.1621ZM1.89864 11.1787H3.00618V10.9238H1.89864V11.1787ZM0.31644 11.1787H1.42398V10.9238H0.31644V11.1787ZM0.47466 9.90723H0.94932V9.65234H0.47466V9.90723ZM0.31644 10.1621H1.10754V9.9043H0.31644V10.1621ZM2.53152 10.666H3.32262V10.4111H2.53152V10.666ZM2.3733 9.9043H2.84796V9.64941H2.3733V9.9043ZM0 10.666H0.7911V10.4111H0V10.666ZM1.42398 10.1592H1.89864V9.9043H1.42398V10.1592ZM1.5822 9.9043H1.74042V9.64941H1.5822V9.9043ZM1.10754 10.666H2.21508V10.4111H1.10754V10.666ZM1.74042 14.4805H2.05686V14.2256H1.74042V14.4805ZM1.42398 14.2256H1.89864V13.9766H1.42398V14.2256ZM1.26576 13.9707H1.5822V13.7158H1.26576V13.9707ZM1.74042 13.9707H2.05686V13.7158H1.74042V13.9707ZM0 14.2285H0.31644V13.9766H0V14.2285ZM0.15822 13.9736H0.47466V13.7217H0.15822V13.9736ZM3.00618 14.2285H3.32262V13.9766H3.00618V14.2285ZM2.84796 13.9736H3.1644V13.7217H2.84796V13.9736ZM0 11.6914H0.15822V11.4365H0V11.6914ZM3.1644 11.6914H3.32262V11.4365H3.1644V11.6914ZM1.26576 9.40039H1.5822V9.14844H1.26576V9.40039ZM1.74042 9.40039H2.05686V9.14844H1.74042V9.40039ZM1.10754 9.14844H1.42398V8.89355H1.10754V9.14844ZM1.89864 9.14844H2.21508V8.89355H1.89864V9.14844ZM0.94932 8.89355H1.26576V8.63867H0.94932V8.89355ZM2.05686 8.89355H2.3733V8.63867H2.05686V8.89355ZM0.7911 8.63574H1.10754V8.38086H0.7911V8.63574ZM2.21508 8.63574H2.53152V8.38086H2.21508V8.63574ZM0.47466 8.38086H0.94932V8.12598H0.47466V8.38086ZM2.3733 8.38086H2.84796V8.12598H2.3733V8.38086ZM2.68974 8.63574H3.00618V8.38086H2.68974V8.63574ZM2.84796 8.89062H3.1644V8.63574H2.84796V8.89062ZM3.00618 9.14551H3.32262V8.89062H3.00618V9.14551ZM0.31644 8.63574H0.63288V8.38086H0.31644V8.63574ZM0.15822 8.89062H0.47466V8.63574H0.15822V8.89062ZM0 9.14258H0.31644V8.88769H0V9.14258ZM0.63288 8.12305H0.7911V7.87109H0.63288V8.12305ZM1.5822 8.88477H1.74042V8.63281H1.5822V8.88477ZM1.5822 11.6826H1.74042V11.4307H1.5822V11.6826ZM0.7911 14.2256H0.94932V13.9766H0.7911V14.2256ZM2.3733 14.2256H2.53152V13.9766H2.3733V14.2256ZM1.42398 12.4531H1.89864V12.1982H1.42398V12.4531ZM1.10754 12.1982H1.5822V11.9434H1.10754V12.1982ZM1.26576 11.9434H1.42398V11.6885H1.26576V11.9434ZM0.94932 12.4531H1.26576V12.1982H0.94932V12.4531ZM1.10754 12.7021H1.5822V12.4531H1.10754V12.7021ZM1.26576 12.957H1.42398V12.7051H1.26576V12.957ZM1.74042 12.7021H2.21508V12.4531H1.74042V12.7021ZM1.89864 12.957H2.05686V12.7051H1.89864V12.957ZM2.05686 12.4502H2.3733V12.1953H2.05686V12.4502ZM1.74042 12.1953H2.21508V11.9404H1.74042V12.1953ZM1.89864 11.9404H2.05686V11.6855H1.89864V11.9404ZM2.53152 12.4531H2.84796V12.1982H2.53152V12.4531ZM2.68974 12.7021H3.1644V12.4531H2.68974V12.7021ZM3.00618 12.4502H3.32262V12.1953H3.00618V12.4502ZM2.68974 12.1953H3.1644V11.9404H2.68974V12.1953ZM2.84796 11.9404H3.00618V11.6855H2.84796V11.9404ZM2.84796 12.957H3.00618V12.7051H2.84796V12.957ZM0 12.4531H0.31644V12.1982H0V12.4531ZM0.15822 12.7021H0.63288V12.4531H0.15822V12.7021Z" fill="#B20000"/>
<path fill-rule="evenodd" clip-rule="evenodd" d="M0.47466 12.4502H0.7911V12.1953H0.47466V12.4502ZM0.15822 12.1953H0.63288V11.9404H0.15822V12.1953ZM0.31644 11.9404H0.47466V11.6855H0.31644V11.9404ZM0.31644 12.957H0.47466V12.7051H0.31644V12.957ZM0.15822 10.9238H0.7911V10.6689H0.15822V10.9238ZM0.94932 10.9238H1.5822V10.6689H0.94932V10.9238ZM1.74042 10.9238H2.3733V10.6689H1.74042V10.9238ZM2.53152 10.9238H3.1644V10.6689H2.53152V10.9238ZM1.26576 10.4141H2.05686V10.1621H1.26576V10.4141ZM0.15822 10.4141H0.94932V10.1621H0.15822V10.4141ZM2.3733 10.4141H3.1644V10.1621H2.3733V10.4141ZM3.1644 9.40039H3.32262V9.14258H3.1644V9.40039ZM0 9.40039H0.15822V9.14258H0V9.40039ZM1.42398 8.12598H1.5822V8.38086H1.42398V8.12598ZM1.74042 8.12598H1.89864V8.38086H1.74042V8.12598ZM1.74042 7.61914H1.89864V7.87402H1.74042V7.61914ZM1.42398 7.61914H1.5822V7.87402H1.42398V7.61914ZM0.31644 14.4834H0.63288V14.7383H0.31644V14.4834ZM2.53152 9.65234H2.68974V9.39746H2.53152V9.65234ZM0.63288 9.65234H0.7911V9.39746H0.63288V9.65234ZM1.42398 9.39746H1.89864V9.65234H1.42398V9.39746Z" fill="#B20000"/>
</g>
</g>
<defs>
<clipPath id="clip0_0_15532">
<rect width="20" height="15" fill="white" transform="translate(0 0.5)"/>
</clipPath>
</defs>
</svg>
