<svg width="8" height="20" viewBox="0 0 8 20" fill="none" xmlns="http://www.w3.org/2000/svg">
<path d="M7.5 3.33325C7.49995 2.70251 7.31202 2.08473 6.95803 1.55166C6.60405 1.01859 6.09854 0.592112 5.50022 0.321757C4.9019 0.0514017 4.23532 -0.0517334 3.57792 0.0243308C2.92051 0.100395 2.29925 0.352537 1.7863 0.75147C1.27335 1.1504 0.889753 1.67976 0.680072 2.27804C0.470391 2.87633 0.443227 3.519 0.601737 4.1314C0.760247 4.74381 1.09792 5.30082 1.57555 5.73773C2.05317 6.17464 2.65114 6.47353 3.3 6.59968V18.3991C3.30008 18.5762 3.33711 18.7515 3.40894 18.9149L3.8495 19.915C3.86426 19.9407 3.88603 19.9622 3.91251 19.9771C3.93899 19.9921 3.96921 20 4 20C4.03079 20 4.06101 19.9921 4.08749 19.9771C4.11397 19.9622 4.13574 19.9407 4.1505 19.915L4.59106 18.9149C4.66289 18.7515 4.69992 18.5762 4.7 18.3991V6.59968C5.48999 6.44505 6.19985 6.03573 6.7099 5.44072C7.21995 4.8457 7.499 4.10139 7.5 3.33325ZM5.05 3.33325C4.84233 3.33325 4.63932 3.2746 4.46665 3.16471C4.29398 3.05482 4.1594 2.89864 4.07993 2.7159C4.00046 2.53317 3.97966 2.33209 4.02018 2.1381C4.06069 1.9441 4.16069 1.76591 4.30754 1.62605C4.45438 1.48619 4.64148 1.39095 4.84516 1.35236C5.04884 1.31377 5.25995 1.33358 5.45182 1.40927C5.64368 1.48496 5.80767 1.61314 5.92304 1.7776C6.03842 1.94205 6.1 2.13541 6.1 2.3332C6.1 2.59843 5.98938 2.8528 5.79246 3.04034C5.59555 3.22789 5.32848 3.33325 5.05 3.33325Z" fill="#172027"/>
</svg>
