<svg width="20" height="11" viewBox="0 0 20 11" fill="none" xmlns="http://www.w3.org/2000/svg">
<path d="M10.1674 10.9904C10.4886 10.9542 10.7875 10.8142 11.0153 10.5933L19.5833 2.34926C19.7159 2.22098 19.821 2.06883 19.8925 1.90148C19.964 1.73414 20.0005 1.55488 20 1.37395C19.9995 1.19302 19.962 1.01396 19.8895 0.846988C19.8171 0.680018 19.7112 0.528414 19.5778 0.400829C19.4445 0.273244 19.2863 0.172178 19.1124 0.103405C18.9385 0.0346317 18.7522 -0.00050354 18.5641 5.72205e-06C18.3761 0.000514984 18.19 0.0366602 18.0165 0.106375C17.843 0.176089 17.6854 0.278008 17.5528 0.406314L10 7.67351L2.44718 0.406314C2.3146 0.278008 2.15707 0.176089 1.98354 0.106375C1.81002 0.0366602 1.6239 0.000514984 1.43586 5.72205e-06C1.24782 -0.00050354 1.06152 0.0346317 0.887586 0.103405C0.713657 0.172178 0.555514 0.273244 0.42218 0.400829C0.288847 0.528414 0.182936 0.680018 0.110501 0.846988C0.0380654 1.01396 0.00051346 1.19302 5.22907e-06 1.37395C-0.000503002 1.55488 0.0360411 1.73414 0.107537 1.90148C0.179034 2.06883 0.284097 2.22098 0.416711 2.34926L8.98476 10.5933C9.13756 10.7416 9.32347 10.8544 9.52839 10.9232C9.73332 10.9921 9.95185 11.015 10.1674 10.9904Z" fill="#172027"/>
</svg>
