<svg width="20" height="11" viewBox="0 0 20 11" fill="none" xmlns="http://www.w3.org/2000/svg">
<path d="M10.1674 0.00958162C10.4886 0.0457775 10.7875 0.1858 11.0153 0.406737L19.5833 8.65074C19.7159 8.77902 19.821 8.93117 19.8925 9.09852C19.964 9.26586 20.0005 9.44512 20 9.62605C19.9995 9.80698 19.962 9.98604 19.8895 10.153C19.8171 10.32 19.7112 10.4716 19.5778 10.5992C19.4445 10.7268 19.2863 10.8278 19.1124 10.8966C18.9385 10.9654 18.7522 11.0005 18.5641 11C18.3761 10.9995 18.19 10.9633 18.0165 10.8936C17.843 10.8239 17.6854 10.722 17.5528 10.5937L10 3.32649L2.44718 10.5937C2.3146 10.722 2.15707 10.8239 1.98354 10.8936C1.81002 10.9633 1.6239 10.9995 1.43586 11C1.24782 11.0005 1.06152 10.9654 0.887586 10.8966C0.713657 10.8278 0.555514 10.7268 0.42218 10.5992C0.288847 10.4716 0.182936 10.32 0.110501 10.153C0.0380654 9.98604 0.00051346 9.80698 5.22907e-06 9.62605C-0.000503002 9.44512 0.0360411 9.26586 0.107537 9.09852C0.179034 8.93117 0.284097 8.77902 0.416711 8.65074L8.98476 0.406737C9.13756 0.258424 9.32347 0.145571 9.52839 0.0767529C9.73332 0.00793511 9.95185 -0.0150366 10.1674 0.00958162Z" fill="#172027"/>
</svg>
