<svg width="20" height="20" viewBox="0 0 20 20" fill="none" xmlns="http://www.w3.org/2000/svg">
<path fill-rule="evenodd" clip-rule="evenodd" d="M19.6138 11.0752C20.23 10.4657 20.2246 9.47518 19.6043 8.86534L11.0848 0.489391C9.60064 -0.994808 7.37381 1.23202 8.85801 2.71621L13.827 7.68519C14.236 8.0942 14.0975 8.42576 13.5153 8.42576L1.57452 8.42576C0.704889 8.42576 5.34058e-05 9.1306 5.34058e-05 10.0002C5.34058e-05 10.8699 0.704889 11.5747 1.57452 11.5747L13.5153 11.5747C14.0964 11.5747 14.2359 11.9063 13.827 12.3152L8.85801 17.2837C7.37381 18.7684 9.60064 20.9947 11.0848 19.5105L19.6138 11.0752Z" fill="#172027"/>
</svg>
