<svg width="20" height="20" viewBox="0 0 20 20" fill="none" xmlns="http://www.w3.org/2000/svg">
<path d="M18.5954 6.13393C18.4671 6.00057 18.3144 5.89482 18.1462 5.82278C17.9779 5.75075 17.7975 5.71387 17.6154 5.71429H14.8461V5C14.8461 3.67392 14.3356 2.40215 13.4267 1.46447C12.5179 0.526784 11.2853 0 10 0C8.71472 0 7.48208 0.526784 6.57325 1.46447C5.66442 2.40215 5.15384 3.67392 5.15384 5V5.71429H2.38461C2.01739 5.71429 1.66521 5.8648 1.40554 6.13271C1.14588 6.40061 1 6.76398 1 7.14286V16.7857C1 18.5268 2.42788 20 4.11538 20H15.8846C16.7009 20.0003 17.4848 19.671 18.0688 19.0826C18.3627 18.7933 18.5968 18.4456 18.7568 18.0604C18.9168 17.6752 18.9996 17.2606 19 16.8415V7.14286C19.0006 6.95544 18.9651 6.76977 18.8956 6.59659C18.8262 6.42341 18.7242 6.26615 18.5954 6.13393ZM6.53846 5C6.53846 4.0528 6.90316 3.14439 7.55232 2.47462C8.20148 1.80485 9.08194 1.42857 10 1.42857C10.9181 1.42857 11.7985 1.80485 12.4477 2.47462C13.0968 3.14439 13.4615 4.0528 13.4615 5V5.71429H6.53846V5ZM14.8461 9.28571C14.8461 10.6118 14.3356 11.8836 13.4267 12.8212C12.5179 13.7589 11.2853 14.2857 10 14.2857C8.71472 14.2857 7.48208 13.7589 6.57325 12.8212C5.66442 11.8836 5.15384 10.6118 5.15384 9.28571V8.57143C5.15384 8.38199 5.22678 8.20031 5.35662 8.06635C5.48645 7.9324 5.66254 7.85714 5.84615 7.85714C6.02976 7.85714 6.20585 7.9324 6.33569 8.06635C6.46552 8.20031 6.53846 8.38199 6.53846 8.57143V9.28571C6.53846 10.2329 6.90316 11.1413 7.55232 11.8111C8.20148 12.4809 9.08194 12.8571 10 12.8571C10.9181 12.8571 11.7985 12.4809 12.4477 11.8111C13.0968 11.1413 13.4615 10.2329 13.4615 9.28571V8.57143C13.4615 8.38199 13.5345 8.20031 13.6643 8.06635C13.7941 7.9324 13.9702 7.85714 14.1538 7.85714C14.3375 7.85714 14.5135 7.9324 14.6434 8.06635C14.7732 8.20031 14.8461 8.38199 14.8461 8.57143V9.28571Z" fill="#A9B5C1"/>
</svg>
