<svg width="20" height="17" viewBox="0 0 20 17" fill="none" xmlns="http://www.w3.org/2000/svg">
<path d="M20 5.23077C19.9992 4.53736 19.718 3.87256 19.2181 3.38225C18.7182 2.89193 18.0403 2.61614 17.3333 2.61538H15.3333V1.96154C15.3328 1.44147 15.1219 0.942861 14.7469 0.575119C14.372 0.207376 13.8636 0.000540891 13.3333 0H6.66667C6.1364 0.000540891 5.62802 0.207376 5.25306 0.575119C4.87811 0.942861 4.66722 1.44147 4.66667 1.96154V2.61538H2.66667C1.95966 2.61614 1.28183 2.89193 0.781901 3.38225C0.281971 3.87256 0.000772023 4.53736 0 5.23077V7.19231H20V5.23077ZM14 2.61538H6V1.96154C6 1.78813 6.07024 1.62182 6.19526 1.4992C6.32029 1.37658 6.48986 1.30769 6.66667 1.30769H13.3333C13.5101 1.30769 13.6797 1.37658 13.8047 1.4992C13.9298 1.62182 14 1.78813 14 1.96154V2.61538ZM13.3333 8.82692C13.3333 9.08704 13.228 9.3365 13.0404 9.52043C12.8529 9.70436 12.5985 9.80769 12.3333 9.80769H7.66667C7.40145 9.80769 7.1471 9.70436 6.95956 9.52043C6.77202 9.3365 6.66667 9.08704 6.66667 8.82692V8.66346C6.66667 8.62011 6.64911 8.57853 6.61785 8.54788C6.5866 8.51722 6.5442 8.5 6.5 8.5H0V14.3846C0 15.0783 0.280952 15.7435 0.781049 16.234C1.28115 16.7245 1.95942 17 2.66667 17H17.3333C18.0406 17 18.7189 16.7245 19.219 16.234C19.719 15.7435 20 15.0783 20 14.3846V8.5H13.5C13.4558 8.5 13.4134 8.51722 13.3821 8.54788C13.3509 8.57853 13.3333 8.62011 13.3333 8.66346V8.82692Z" fill="#172027"/>
</svg>
