<svg width="20" height="15" viewBox="0 0 20 15" fill="none" xmlns="http://www.w3.org/2000/svg">
<path d="M18.3386 0.00124138C17.923 0.0142648 17.529 0.186589 17.2401 0.481621C13.326 4.35189 10.3623 7.56265 6.67919 11.2588L2.63461 7.88399C2.47477 7.74973 2.2897 7.64782 2.08996 7.58413C1.89021 7.52044 1.67971 7.4962 1.47047 7.51278C1.26123 7.52936 1.05734 7.58644 0.870461 7.68077C0.683578 7.77509 0.517356 7.9048 0.381287 8.06251C0.245217 8.22022 0.141964 8.40285 0.0774238 8.59993C0.0128839 8.79701 -0.011679 9.0047 0.00513744 9.21115C0.0219539 9.4176 0.0798201 9.61877 0.175433 9.80315C0.271045 9.98754 0.402531 10.1515 0.562382 10.2858L5.75543 14.6213C6.06174 14.8799 6.4558 15.0147 6.85863 14.9987C7.26145 14.9827 7.64326 14.8171 7.92752 14.5351C12.2215 10.2893 15.2841 6.89154 19.512 2.71094C19.745 2.48899 19.9041 2.20243 19.9683 1.88925C20.0325 1.57606 19.9987 1.25104 19.8715 0.957213C19.7442 0.663385 19.5295 0.414638 19.2558 0.243921C18.982 0.0732038 18.6622 -0.011434 18.3386 0.00124138Z" fill="#172027"/>
</svg>
