<svg width="20" height="20" viewBox="0 0 20 20" fill="none" xmlns="http://www.w3.org/2000/svg">
<path fill-rule="evenodd" clip-rule="evenodd" d="M0.492283 0.492292C1.14867 -0.164097 2.21285 -0.164073 2.86921 0.492292L10 7.62308L17.1308 0.492292C17.7872 -0.164097 18.8513 -0.164097 19.5077 0.492292C20.1641 1.14868 20.1641 2.21283 19.5077 2.86922L12.3769 10L19.5077 17.1308C20.1641 17.7872 20.1641 18.8513 19.5077 19.5077C18.8513 20.1641 17.7872 20.1641 17.1308 19.5077L10 12.3769L2.86921 19.5077C2.21285 20.1641 1.14867 20.1641 0.492283 19.5077C-0.164106 18.8513 -0.164082 17.7872 0.492283 17.1308L7.62307 10L0.492283 2.86922C-0.164082 2.21285 -0.164106 1.14868 0.492283 0.492292Z" fill="#172027"/>
</svg>
