<svg width="17" height="20" viewBox="0 0 17 20" fill="none" xmlns="http://www.w3.org/2000/svg">
<path d="M16.0042 8.57143H9.64058C9.06193 8.57143 8.50697 8.34566 8.0978 7.9438C7.68863 7.54194 7.45876 6.99689 7.45876 6.42857V0.178571C7.45876 0.131211 7.43961 0.085791 7.40551 0.0523024C7.37141 0.0188138 7.32517 0 7.27694 0H3.09513C2.32359 0 1.58365 0.30102 1.03809 0.836838C0.492528 1.37266 0.186035 2.09938 0.186035 2.85714V17.1429C0.186035 17.9006 0.492528 18.6273 1.03809 19.1632C1.58365 19.699 2.32359 20 3.09513 20H13.2769C14.0485 20 14.7884 19.699 15.334 19.1632C15.8795 18.6273 16.186 17.9006 16.186 17.1429V8.75C16.186 8.70264 16.1669 8.65722 16.1328 8.62373C16.0987 8.59024 16.0524 8.57143 16.0042 8.57143ZM11.8224 15.7143H4.54967C4.35679 15.7143 4.1718 15.639 4.03541 15.5051C3.89902 15.3711 3.8224 15.1894 3.8224 15C3.8224 14.8106 3.89902 14.6289 4.03541 14.4949C4.1718 14.361 4.35679 14.2857 4.54967 14.2857H11.8224C12.0153 14.2857 12.2003 14.361 12.3367 14.4949C12.473 14.6289 12.5497 14.8106 12.5497 15C12.5497 15.1894 12.473 15.3711 12.3367 15.5051C12.2003 15.639 12.0153 15.7143 11.8224 15.7143ZM11.8224 12.1429H4.54967C4.35679 12.1429 4.1718 12.0676 4.03541 11.9336C3.89902 11.7997 3.8224 11.618 3.8224 11.4286C3.8224 11.2391 3.89902 11.0574 4.03541 10.9235C4.1718 10.7895 4.35679 10.7143 4.54967 10.7143H11.8224C12.0153 10.7143 12.2003 10.7895 12.3367 10.9235C12.473 11.0574 12.5497 11.2391 12.5497 11.4286C12.5497 11.618 12.473 11.7997 12.3367 11.9336C12.2003 12.0676 12.0153 12.1429 11.8224 12.1429Z" fill="#172027"/>
<path d="M15.6051 6.99062L9.06831 0.570536C9.0556 0.558124 9.03943 0.549681 9.02185 0.546266C9.00426 0.542852 8.98604 0.54462 8.96948 0.551347C8.95291 0.558074 8.93874 0.56946 8.92875 0.584074C8.91876 0.598688 8.91338 0.615878 8.91331 0.633482V6.42857C8.91331 6.61801 8.98993 6.79969 9.12632 6.93365C9.26271 7.0676 9.4477 7.14286 9.64058 7.14286H15.541C15.559 7.14278 15.5765 7.13751 15.5913 7.12769C15.6062 7.11788 15.6178 7.10396 15.6247 7.08769C15.6315 7.07142 15.6333 7.05353 15.6298 7.03626C15.6264 7.01899 15.6178 7.00311 15.6051 6.99062Z" fill="#172027"/>
</svg>
