<svg width="20" height="5" viewBox="0 0 20 5" fill="none" xmlns="http://www.w3.org/2000/svg">
<path d="M10 4.6875C11.2745 4.6875 12.3077 3.63817 12.3077 2.34375C12.3077 1.04933 11.2745 0 10 0C8.7255 0 7.69231 1.04933 7.69231 2.34375C7.69231 3.63817 8.7255 4.6875 10 4.6875Z" fill="#172027"/>
<path d="M17.6923 4.6875C18.9668 4.6875 20 3.63817 20 2.34375C20 1.04933 18.9668 0 17.6923 0C16.4178 0 15.3846 1.04933 15.3846 2.34375C15.3846 3.63817 16.4178 4.6875 17.6923 4.6875Z" fill="#172027"/>
<path d="M2.30769 4.6875C3.5822 4.6875 4.61538 3.63817 4.61538 2.34375C4.61538 1.04933 3.5822 0 2.30769 0C1.03319 0 0 1.04933 0 2.34375C0 3.63817 1.03319 4.6875 2.30769 4.6875Z" fill="#172027"/>
</svg>
