<svg width="6" height="20" viewBox="0 0 6 20" fill="none" xmlns="http://www.w3.org/2000/svg">
<path d="M3.00008 12.3077C4.27458 12.3077 5.30777 11.2745 5.30777 10C5.30777 8.7255 4.27458 7.69231 3.00008 7.69231C1.72557 7.69231 0.692383 8.7255 0.692383 10C0.692383 11.2745 1.72557 12.3077 3.00008 12.3077Z" fill="black"/>
<path d="M3.00008 20C4.27458 20 5.30777 18.9668 5.30777 17.6923C5.30777 16.4178 4.27458 15.3846 3.00008 15.3846C1.72557 15.3846 0.692383 16.4178 0.692383 17.6923C0.692383 18.9668 1.72557 20 3.00008 20Z" fill="black"/>
<path d="M3.00008 4.61538C4.27458 4.61538 5.30777 3.5822 5.30777 2.30769C5.30777 1.03319 4.27458 0 3.00008 0C1.72557 0 0.692383 1.03319 0.692383 2.30769C0.692383 3.5822 1.72557 4.61538 3.00008 4.61538Z" fill="black"/>
</svg>
