<svg width="20" height="10" viewBox="0 0 20 10" fill="none" xmlns="http://www.w3.org/2000/svg">
<path d="M0.331838 3.70275C-0.110613 4.15847 -0.110613 4.86277 0.331838 5.29778L4.77741 9.66857C5.00917 9.89643 5.30414 10 5.57804 10C5.87301 10 6.16797 9.89643 6.37866 9.66857L7.20036 8.88141L1.93309 3.70275C1.49064 3.26774 0.774289 3.26774 0.331838 3.70275Z" fill="#172027"/>
<path d="M10.9928 5.17348L14.2796 1.92128C14.7431 1.48627 14.7431 0.761263 14.2796 0.326255C13.8371 -0.108752 13.0997 -0.108752 12.6572 0.326255L9.3494 3.57845L10.9928 5.17348Z" fill="#172027"/>
<path d="M19.6733 0.326255C19.2308 -0.108752 18.5145 -0.108752 18.0509 0.326255L10.9717 7.28637L7.32677 3.70274C6.88432 3.26773 6.16797 3.26773 5.70445 3.70274C5.24093 4.13775 5.262 4.84205 5.70445 5.29777L10.15 9.66856C10.3818 9.89642 10.6557 9.99999 10.9507 9.99999C11.2456 9.99999 11.5406 9.89642 11.7513 9.66856L19.6311 1.92128C20.1157 1.48627 20.1157 0.781977 19.6733 0.326255Z" fill="#172027"/>
</svg>
