<svg width="20" height="20" viewBox="0 0 20 20" fill="none" xmlns="http://www.w3.org/2000/svg">
<path d="M19.8048 0.252418C19.7345 0.175226 19.6494 0.113079 19.5544 0.069733C19.4595 0.0263867 19.3567 0.00274094 19.2524 0.000224464C19.148 -0.00229201 19.0443 0.016373 18.9473 0.0550919C18.8504 0.0938107 18.7623 0.151779 18.6884 0.225495L18.0937 0.817321C18.0217 0.889443 17.9812 0.987233 17.9812 1.0892C17.9812 1.19116 18.0217 1.28895 18.0937 1.36107L18.6389 1.9053C18.6747 1.94121 18.7171 1.9697 18.7639 1.98914C18.8107 2.00858 18.8609 2.01859 18.9115 2.01859C18.9622 2.01859 19.0123 2.00858 19.0591 1.98914C19.1059 1.9697 19.1484 1.94121 19.1841 1.9053L19.7639 1.32838C20.0572 1.03559 20.0846 0.558668 19.8048 0.252418ZM16.8913 2.01924L8.21249 10.6827C8.15987 10.7351 8.12163 10.8002 8.10144 10.8716L7.7 12.0673C7.69038 12.0998 7.6897 12.1342 7.69802 12.167C7.70635 12.1998 7.72337 12.2297 7.7473 12.2537C7.77123 12.2776 7.80117 12.2946 7.83397 12.3029C7.86677 12.3113 7.90121 12.3106 7.93365 12.301L9.12836 11.8995C9.19983 11.8793 9.2649 11.8411 9.3173 11.7885L17.9808 3.10867C18.0609 3.02766 18.1059 2.9183 18.1059 2.80434C18.1059 2.69038 18.0609 2.58102 17.9808 2.50001L17.5024 2.01924C17.4213 1.93836 17.3114 1.89294 17.1969 1.89294C17.0823 1.89294 16.9724 1.93836 16.8913 2.01924Z" fill="#172027"/>
<path d="M16.2663 7.00289L10.4062 12.8745C10.1798 13.1016 9.90138 13.27 9.59519 13.3654L8.34999 13.7822C8.05448 13.8657 7.74206 13.8688 7.44492 13.7913C7.14779 13.7139 6.87669 13.5585 6.65955 13.3414C6.44242 13.1243 6.28711 12.8532 6.20963 12.556C6.13215 12.2589 6.13529 11.9465 6.21875 11.651L6.63557 10.4058C6.73064 10.0997 6.89878 9.82131 7.12548 9.59472L12.9971 3.73367C13.0509 3.6799 13.0876 3.61139 13.1025 3.53679C13.1174 3.46218 13.1098 3.38484 13.0807 3.31455C13.0516 3.24425 13.0024 3.18415 12.9391 3.14186C12.8759 3.09956 12.8015 3.07697 12.7255 3.07693H2.69231C1.97826 3.07693 1.29346 3.36059 0.788558 3.86549C0.283653 4.3704 0 5.0552 0 5.76924V17.3077C0 18.0217 0.283653 18.7065 0.788558 19.2114C1.29346 19.7163 1.97826 20 2.69231 20H14.2308C14.9448 20 15.6296 19.7163 16.1345 19.2114C16.6394 18.7065 16.9231 18.0217 16.9231 17.3077V7.27453C16.923 7.19846 16.9004 7.1241 16.8581 7.06087C16.8158 6.99764 16.7558 6.94837 16.6855 6.91929C16.6152 6.89022 16.5378 6.88264 16.4632 6.89752C16.3886 6.9124 16.3201 6.94907 16.2663 7.00289Z" fill="#172027"/>
</svg>
