<svg width="21" height="15" viewBox="0 0 21 15" fill="none" xmlns="http://www.w3.org/2000/svg">
<path d="M17.686 0H2.68604C2.02321 0.000676801 1.38774 0.252314 0.919051 0.699697C0.450364 1.14708 0.186744 1.75367 0.186035 2.38636V12.6136C0.186744 13.2463 0.450364 13.8529 0.919051 14.3003C1.38774 14.7477 2.02321 14.9993 2.68604 15H17.686C18.3489 14.9993 18.9843 14.7477 19.453 14.3003C19.9217 13.8529 20.1853 13.2463 20.186 12.6136V2.38636C20.1853 1.75367 19.9217 1.14708 19.453 0.699697C18.9843 0.252314 18.3489 0.000676801 17.686 0ZM17.053 3.9473L10.6244 8.72003C10.4991 8.81305 10.3448 8.86355 10.186 8.86355C10.0273 8.86355 9.873 8.81305 9.74764 8.72003L3.31907 3.9473C3.24354 3.89286 3.1801 3.82462 3.13243 3.74657C3.08477 3.66852 3.05383 3.5822 3.04141 3.49264C3.029 3.40308 3.03535 3.31205 3.06011 3.22485C3.08487 3.13765 3.12754 3.05602 3.18563 2.98469C3.24373 2.91337 3.31609 2.85378 3.39853 2.80938C3.48096 2.76499 3.57181 2.73667 3.6658 2.72608C3.7598 2.71549 3.85506 2.72284 3.94606 2.7477C4.03705 2.77256 4.12196 2.81443 4.19586 2.87088L10.186 7.31804L16.1762 2.87088C16.326 2.76291 16.5143 2.71555 16.7004 2.73905C16.8864 2.76256 17.0554 2.85503 17.1706 2.99647C17.2858 3.13792 17.338 3.31697 17.316 3.4949C17.294 3.67283 17.1995 3.83535 17.053 3.9473Z" fill="#172027"/>
</svg>
