<svg width="11" height="20" viewBox="0 0 11 20" fill="none" xmlns="http://www.w3.org/2000/svg">
<path d="M10.9904 10.1674C10.9542 10.4886 10.8142 10.7875 10.5933 11.0153L2.34926 19.5833C2.22098 19.7159 2.06883 19.821 1.90148 19.8925C1.73414 19.964 1.55488 20.0005 1.37395 20C1.19302 19.9995 1.01396 19.962 0.846988 19.8895C0.680018 19.8171 0.528414 19.7112 0.400829 19.5778C0.273244 19.4445 0.172178 19.2863 0.103405 19.1124C0.0346317 18.9385 -0.00050354 18.7522 5.72205e-06 18.5641C0.000514984 18.3761 0.0366602 18.19 0.106375 18.0165C0.176089 17.843 0.278008 17.6854 0.406314 17.5528L7.67351 10L0.406314 2.44718C0.278008 2.3146 0.176089 2.15707 0.106375 1.98354C0.0366602 1.81002 0.000514984 1.6239 5.72205e-06 1.43586C-0.00050354 1.24782 0.0346317 1.06152 0.103405 0.887586C0.172178 0.713657 0.273244 0.555514 0.400829 0.42218C0.528414 0.288847 0.680018 0.182936 0.846988 0.110501C1.01396 0.0380654 1.19302 0.00051346 1.37395 5.22907e-06C1.55488 -0.000503002 1.73414 0.0360411 1.90148 0.107537C2.06883 0.179034 2.22098 0.284097 2.34926 0.416711L10.5933 8.98476C10.7416 9.13756 10.8544 9.32347 10.9232 9.52839C10.9921 9.73332 11.015 9.95185 10.9904 10.1674Z" fill="#172027"/>
</svg>
