<svg width="20" height="20" viewBox="0 0 20 20" fill="none" xmlns="http://www.w3.org/2000/svg">
<path fill-rule="evenodd" clip-rule="evenodd" d="M1.1931 19.6614C1.40708 19.8768 1.69776 19.9986 2.00139 20C2.16183 19.9947 2.31995 19.9601 2.46791 19.8978L5.4804 18.8094L5.51835 18.7946C5.60031 18.7602 5.68839 18.7428 5.77728 18.7433C5.85924 18.7435 5.94047 18.7586 6.01701 18.788C6.02244 18.79 6.03117 18.7932 6.04296 18.7977C6.18817 18.8524 6.79806 19.082 7.43889 19.2612C8.01478 19.4237 9.21433 19.663 10.1518 19.663C12.8148 19.663 15.3014 18.6335 17.1532 16.7585C18.9889 14.9018 19.9996 12.4308 19.9996 9.8C19.9998 9.12469 19.9283 8.45127 19.7862 7.79107C19.3246 5.61786 18.1005 3.64241 16.3393 2.225C14.5379 0.783623 12.2991 -0.00113825 9.99201 1.23917e-06C7.27237 1.23917e-06 4.73219 1.04777 2.83308 2.95045C0.997816 4.79331 -0.00798794 7.22232 4.77799e-05 9.79331C-0.000151986 11.6787 0.553242 13.5227 1.59157 15.0964L1.60005 15.1085C1.60694 15.1186 1.61425 15.1288 1.62144 15.1389C1.62728 15.1471 1.63304 15.1551 1.63844 15.1629C1.64305 15.1696 1.64838 15.1772 1.65341 15.1843C1.66152 15.1959 1.66883 15.2062 1.67103 15.2098L1.68085 15.2277C1.7313 15.3152 1.77014 15.4259 1.73576 15.5357L0.913441 18.5103C0.880543 18.6209 0.862528 18.7355 0.859869 18.8509C0.859275 19.1545 0.979109 19.446 1.1931 19.6614ZM9.28571 4.0625C9.28571 3.66801 9.60551 3.34822 10 3.34822C10.3945 3.34822 10.7143 3.66801 10.7143 4.0625V9.77686H14.2858C14.6803 9.77686 15.0001 10.0967 15.0001 10.4911C15.0001 10.8856 14.6803 11.2054 14.2858 11.2054H10.0001C9.80204 11.2054 9.62283 11.1248 9.49345 10.9947C9.36505 10.8655 9.28571 10.6876 9.28571 10.4911V4.0625Z" fill="#172027"/>
</svg>
