<svg width="20" height="14" viewBox="0 0 20 14" fill="none" xmlns="http://www.w3.org/2000/svg">
<path d="M10.0008 9.8C11.4735 9.8 12.6674 8.5464 12.6674 7C12.6674 5.4536 11.4735 4.2 10.0008 4.2C8.52801 4.2 7.33411 5.4536 7.33411 7C7.33411 8.5464 8.52801 9.8 10.0008 9.8Z" fill="#172027"/>
<path d="M19.7857 6.23875C18.6832 4.4485 17.2528 2.92775 15.6495 1.84056C13.8757 0.636563 11.9174 0 9.9866 0C8.21494 0 6.47287 0.531563 4.80871 1.57981C3.11164 2.64863 1.57415 4.21006 0.238746 6.22037C0.0879907 6.44757 0.00496385 6.7167 0.000215679 6.99355C-0.0045325 7.27041 0.0692124 7.5425 0.21208 7.77525C1.31249 9.58344 2.72873 11.1064 4.30705 12.1787C6.08412 13.3875 7.99661 14 9.9866 14C11.9328 14 13.8953 13.3687 15.6616 12.1748C17.264 11.0911 18.6915 9.56462 19.7899 7.7595C19.9278 7.53216 20.0007 7.26804 20 6.99848C19.9993 6.72893 19.9249 6.46525 19.7857 6.23875ZM10.0008 11.2C9.20964 11.2 8.43629 10.9537 7.7785 10.4922C7.1207 10.0307 6.60802 9.37472 6.30527 8.60727C6.00252 7.83982 5.92331 6.99534 6.07765 6.18062C6.23199 5.3659 6.61295 4.61753 7.17235 4.03015C7.73176 3.44277 8.44449 3.04276 9.22041 2.8807C9.99632 2.71864 10.8006 2.80182 11.5315 3.11971C12.2624 3.43759 12.8871 3.97592 13.3266 4.6666C13.7661 5.35729 14.0007 6.16932 14.0007 7C13.9995 8.11352 13.5777 9.18106 12.8278 9.96844C12.078 10.7558 11.0612 11.1987 10.0008 11.2Z" fill="#172027"/>
</svg>
