<svg width="20" height="20" viewBox="0 0 20 20" fill="none" xmlns="http://www.w3.org/2000/svg">
<path d="M17.9235 0.5H2.07648C1.67418 0.500319 1.28063 0.618068 0.943573 0.838958C0.60652 1.05985 0.340463 1.37438 0.177693 1.74438C0.0149234 2.11439 -0.0375617 2.52395 0.026608 2.92337C0.0907778 3.32279 0.268844 3.69489 0.539194 3.99451L7.40698 11.5908V18.7549C7.40704 18.8949 7.44634 19.0321 7.52038 19.1507C7.59442 19.2693 7.70019 19.3646 7.82557 19.4255C7.92578 19.4752 8.03612 19.5007 8.14785 19.5C8.31623 19.4999 8.47954 19.442 8.61088 19.3361L10 18.2184L12.3152 16.3557C12.4018 16.2859 12.4718 16.1975 12.5199 16.0969C12.5679 15.9963 12.5929 15.8861 12.593 15.7745V11.5908L19.4608 3.99451C19.7312 3.69489 19.9092 3.32279 19.9734 2.92337C20.0376 2.52395 19.9851 2.11439 19.8223 1.74438C19.6595 1.37438 19.3935 1.05985 19.0564 0.838958C18.7194 0.618068 18.3258 0.500319 17.9235 0.5Z" fill="#172027"/>
</svg>
