<svg width="18" height="20" viewBox="0 0 18 20" fill="none" xmlns="http://www.w3.org/2000/svg">
<path d="M15.1071 20H6.10714C5.33991 20 4.6041 19.6614 4.06158 19.0586C3.51907 18.4558 3.21429 17.6382 3.21429 16.7857V6.78571C3.21429 5.93323 3.51907 5.11567 4.06158 4.51287C4.6041 3.91008 5.33991 3.57143 6.10714 3.57143H15.1071C15.8744 3.57143 16.6102 3.91008 17.1527 4.51287C17.6952 5.11567 18 5.93323 18 6.78571V16.7857C18 17.6382 17.6952 18.4558 17.1527 19.0586C16.6102 19.6614 15.8744 20 15.1071 20Z" fill="#172027"/>
<path d="M5.14286 2.14286H14.6202C14.4202 1.51663 14.0507 0.974497 13.5624 0.590842C13.0741 0.207187 12.4909 0.000802236 11.8929 0H2.89286C2.12562 0 1.38981 0.338647 0.847298 0.941442C0.304782 1.54424 0 2.3618 0 3.21429V13.2143C0.000722012 13.8788 0.186469 14.5267 0.531758 15.0693C0.877047 15.6119 1.36496 16.0224 1.92857 16.2446V5.71429C1.92857 4.76708 2.26722 3.85868 2.87001 3.1889C3.47281 2.51913 4.29038 2.14286 5.14286 2.14286Z" fill="#172027"/>
</svg>
