<svg width="21" height="20" viewBox="0 0 21 20" fill="none" xmlns="http://www.w3.org/2000/svg">
<path fill-rule="evenodd" clip-rule="evenodd" d="M13.0988 0.429252C15.0597 1.02297 16.7661 2.1999 18.0152 3.75819H14.475C14.1202 2.64858 13.6628 1.53898 13.0988 0.429252ZM10.186 20C9.74092 20 9.30291 19.971 8.87311 19.9148C8.26085 18.6905 7.73945 17.4662 7.31969 16.2417H13.0521C12.6325 17.4662 12.1108 18.6905 11.4988 19.9148C11.0693 19.9712 10.6311 20 10.186 20ZM7.40969 19.6108C6.86503 18.4878 6.40779 17.3645 6.04069 16.2417H2.35685C3.63488 17.8359 5.39157 19.0313 7.40969 19.6108ZM14.3314 16.2417C13.9643 17.3647 13.507 18.4879 12.9624 19.6108C14.9804 19.0313 16.7371 17.8359 18.0152 16.2417H14.3314ZM1.47422 14.9455C0.74172 13.6636 0.285711 12.2041 0.186035 10.6481H4.98075C5.05103 12.0805 5.27891 13.513 5.65729 14.9455H1.47422ZM6.15077 10.6481H14.2213C14.1233 12.0805 13.8633 13.5131 13.4582 14.9455H6.91389C6.50882 13.5131 6.24873 12.0805 6.15077 10.6481ZM15.3913 10.6481H20.186C20.0864 12.2041 19.6303 13.6636 18.8977 14.9455H14.7148C15.0932 13.513 15.321 12.0805 15.3913 10.6481ZM0.186035 9.35178C0.285833 7.79582 0.741842 6.33639 1.47422 5.05437H5.52884C5.17348 6.48693 4.98687 7.91936 4.96079 9.35178H0.186035ZM6.63335 5.0545H13.7388C14.0938 6.48705 14.2633 7.91948 14.265 9.35191H6.10718C6.10877 7.91948 6.27836 6.48693 6.63335 5.0545ZM14.8432 5.0545H18.8977C19.6301 6.33651 20.0861 7.79594 20.186 9.35191H15.4112C15.3851 7.91948 15.1985 6.48693 14.8432 5.0545ZM2.35685 3.75819C3.60598 2.20015 5.31247 1.02285 7.2734 0.429252C6.70927 1.53898 6.25204 2.64858 5.89705 3.75819H2.35685ZM8.6167 0.122067C7.93611 1.33419 7.40259 2.54619 7.00609 3.75819H13.366C12.9692 2.54619 12.4358 1.33419 11.7554 0.122067C11.244 0.0416667 10.7199 0 10.186 0C9.65215 0 9.12805 0.0417889 8.6167 0.122067Z" fill="#172027"/>
</svg>
