<svg width="17" height="20" viewBox="0 0 17 20" fill="none" xmlns="http://www.w3.org/2000/svg">
<path d="M13.2769 7.33333H12.5497V4C12.5497 2.93913 12.0899 1.92172 11.2716 1.17157C10.4533 0.421427 9.34334 0 8.18604 0C7.02873 0 5.91882 0.421427 5.10048 1.17157C4.28214 1.92172 3.8224 2.93913 3.8224 4V7.33333H3.09513C2.32385 7.33411 1.5844 7.6153 1.03902 8.11523C0.493641 8.61516 0.186877 9.29299 0.186035 10V17.3333C0.186877 18.0403 0.493641 18.7182 1.03902 19.2181C1.5844 19.718 2.32385 19.9992 3.09513 20H13.2769C14.0482 19.9992 14.7877 19.718 15.3331 19.2181C15.8784 18.7182 16.1852 18.0403 16.186 17.3333V10C16.1852 9.29299 15.8784 8.61516 15.3331 8.11523C14.7877 7.6153 14.0482 7.33411 13.2769 7.33333ZM11.0951 7.33333H5.27694V4C5.27694 3.29276 5.58344 2.61448 6.129 2.11438C6.67456 1.61428 7.4145 1.33333 8.18604 1.33333C8.95757 1.33333 9.69751 1.61428 10.2431 2.11438C10.7886 2.61448 11.0951 3.29276 11.0951 4V7.33333Z" fill="#172027"/>
</svg>
