<svg width="20" height="15" viewBox="0 0 20 15" fill="none" xmlns="http://www.w3.org/2000/svg">
<path d="M18.1818 6.9V12.3C18.1818 12.5387 18.086 12.7676 17.9156 12.9364C17.7451 13.1052 17.5138 13.2 17.2727 13.2L2.72727 13.2C2.48617 13.2 2.25494 13.1052 2.08445 12.9364C1.91396 12.7676 1.81818 12.5387 1.81818 12.3L1.81818 6.9C1.81818 6.66131 1.7224 6.43239 1.55192 6.2636C1.38143 6.09482 1.1502 6 0.909091 6C0.667985 6 0.436754 6.09482 0.266267 6.2636C0.0957789 6.43239 0 6.66131 0 6.9L0 12.3C0 13.0161 0.287337 13.7028 0.7988 14.2092C1.31026 14.7155 2.00395 15 2.72727 15L17.2727 15C17.996 15 18.6897 14.7155 19.2012 14.2092C19.7127 13.7028 20 13.0161 20 12.3V6.9C20 6.66131 19.9042 6.43239 19.7337 6.2636C19.5632 6.09482 19.332 6 19.0909 6C18.8498 6 18.6186 6.09482 18.4481 6.2636C18.2776 6.43239 18.1818 6.66131 18.1818 6.9Z" fill="#172027"/>
<path d="M9.00014 0.909503L9.00014 6.90313L6.7124 4.81127C6.61925 4.72647 6.50867 4.6592 6.38697 4.61331C6.26527 4.56742 6.13483 4.54379 6.0031 4.54379C5.87137 4.54379 5.74093 4.56742 5.61923 4.61331C5.49753 4.6592 5.38695 4.72647 5.2938 4.81127C5.20065 4.89607 5.12677 4.99675 5.07636 5.10754C5.02595 5.21834 5 5.33709 5 5.45702C5 5.57695 5.02595 5.6957 5.07636 5.8065C5.12677 5.91729 5.20065 6.01797 5.2938 6.10277L9.28985 9.74078C9.38486 9.82358 9.49689 9.88849 9.61952 9.93178C9.86274 10.0227 10.1356 10.0227 10.3788 9.93178C10.5014 9.88849 10.6134 9.82358 10.7084 9.74078L14.7045 6.10277C14.7981 6.01822 14.8725 5.91762 14.9232 5.80679C14.9739 5.69596 15 5.57708 15 5.45702C15 5.33695 14.9739 5.21808 14.9232 5.10725C14.8725 4.99641 14.7981 4.89582 14.7045 4.81127C14.6116 4.72603 14.5011 4.65836 14.3794 4.61219C14.2577 4.56602 14.1271 4.54224 13.9952 4.54224C13.8633 4.54224 13.7327 4.56602 13.611 4.61219C13.4893 4.65836 13.3788 4.72603 13.2859 4.81127L10.9982 6.90313L10.9982 0.909503C10.9982 0.668287 10.8929 0.436952 10.7056 0.266387C10.5182 0.0958223 10.2641 0 9.99915 0C9.73419 0 9.48009 0.0958223 9.29274 0.266387C9.10539 0.436952 9.00014 0.668287 9.00014 0.909503Z" fill="#172027"/>
</svg>
