<svg width="20" height="16" viewBox="0 0 20 16" fill="none" xmlns="http://www.w3.org/2000/svg">
<path d="M13.5717 13.4545V8.72727H7.09833C6.90889 8.72727 6.7272 8.65065 6.59325 8.51426C6.45929 8.37787 6.38403 8.19289 6.38403 8C6.38403 7.80712 6.45929 7.62213 6.59325 7.48574C6.7272 7.34935 6.90889 7.27273 7.09833 7.27273H13.5717V2.54545C13.5709 1.87058 13.3073 1.22355 12.8386 0.746344C12.3699 0.269135 11.7344 0.000721921 11.0716 0H2.50004C1.83721 0.000721921 1.20172 0.269135 0.733028 0.746344C0.264333 1.22355 0.000709041 1.87058 0 2.54545V13.4545C0.000709041 14.1294 0.264333 14.7764 0.733028 15.2537C1.20172 15.7309 1.83721 15.9993 2.50004 16H11.0716C11.7344 15.9993 12.3699 15.7309 12.8386 15.2537C13.3073 14.7764 13.5709 14.1294 13.5717 13.4545ZM17.5615 8.72727L15.2096 11.1223C15.0813 11.2598 15.0109 11.4429 15.0132 11.6325C15.0156 11.8222 15.0907 12.0033 15.2224 12.1375C15.3541 12.2716 15.5321 12.348 15.7183 12.3504C15.9046 12.3528 16.0844 12.2811 16.2195 12.1505L19.791 8.51409C19.9248 8.37772 20 8.1928 20 8C20 7.8072 19.9248 7.62229 19.791 7.48591L16.2195 3.84955C16.0844 3.71891 15.9046 3.64716 15.7183 3.64959C15.5321 3.65202 15.3541 3.72843 15.2224 3.86254C15.0907 3.99665 15.0156 4.17785 15.0132 4.36749C15.0109 4.55714 15.0813 4.74023 15.2096 4.87773L17.5615 7.27273H13.5717V8.72727H17.5615Z" fill="#172027"/>
</svg>
