<svg width="21" height="18" viewBox="0 0 21 18" fill="none" xmlns="http://www.w3.org/2000/svg">
<path d="M20.186 10.6866C20.1863 11.5894 19.8636 12.4602 19.2802 13.1312C18.6968 13.8021 17.8941 14.2255 17.0269 14.3198C16.736 16.7882 13.8088 16.7929 12.1951 16.7929H12.1247C12.0311 17.003 11.8815 17.1811 11.6935 17.3062C11.5054 17.4313 11.2868 17.4981 11.0633 17.4988H9.18149C9.02269 17.5061 8.86412 17.4799 8.71534 17.422C8.56656 17.364 8.43065 17.2755 8.31581 17.1617C8.20097 17.0479 8.10957 16.9112 8.04713 16.7599C7.9847 16.6085 7.95251 16.4457 7.95251 16.2811C7.95251 16.1165 7.9847 15.9536 8.04713 15.8023C8.10957 15.6509 8.20097 15.5143 8.31581 15.4005C8.43065 15.2867 8.56656 15.1981 8.71534 15.1402C8.86412 15.0823 9.02269 15.0561 9.18149 15.0634H11.0633C11.2868 15.0641 11.5054 15.1309 11.6935 15.256C11.8815 15.381 12.0311 15.5591 12.1247 15.7693H12.1951C14.386 15.7693 15.7451 15.534 16.0019 14.3574H14.786V7.06281H15.8224C15.6201 3.90494 13.2406 1.57302 10.1224 1.57302C6.94058 1.57302 4.53604 3.98965 4.41331 7.23694H5.3224V14.1715H3.5474C3.1056 14.1715 2.66813 14.0814 2.26001 13.9062C1.8519 13.731 1.48114 13.4742 1.16895 13.1505C0.856759 12.8269 0.609258 12.4426 0.440601 12.0199C0.271944 11.5971 0.185441 11.144 0.186038 10.6866C0.187058 9.78975 0.52265 8.92799 1.12274 8.28125C1.72283 7.6345 2.54103 7.25277 3.40649 7.21576C3.52467 3.37079 6.36104 0.5 10.1224 0.5C13.8224 0.5 16.6315 3.28607 16.8292 7.04398C17.7337 7.08813 18.587 7.49117 19.212 8.16943C19.8371 8.8477 20.1859 9.74911 20.186 10.6866Z" fill="#172027"/>
</svg>
