<svg width="20" height="16" viewBox="0 0 20 16" fill="none" xmlns="http://www.w3.org/2000/svg">
<path d="M1.02564 0C0.459205 0 0 0.459177 0 1.02564C0 1.5921 0.459205 2.05128 1.02564 2.05128H18.9744C19.5408 2.05128 20 1.5921 20 1.02564C20 0.459177 19.5408 0 18.9744 0H1.02564ZM1.02564 6.66667C0.459205 6.66667 0 7.12585 0 7.69231C0 8.25877 0.459205 8.71795 1.02564 8.71795H18.9744C19.5408 8.71795 20 8.25877 20 7.69231C20 7.12585 19.5408 6.66667 18.9744 6.66667H1.02564ZM1.02564 13.3333C0.459205 13.3333 0 13.7925 0 14.359C0 14.9254 0.459205 15.3846 1.02564 15.3846H18.9744C19.5408 15.3846 20 14.9254 20 14.359C20 13.7925 19.5408 13.3333 18.9744 13.3333H1.02564Z" fill="#172027"/>
</svg>
