<svg width="18" height="20" viewBox="0 0 18 20" fill="none" xmlns="http://www.w3.org/2000/svg">
<path d="M17.5954 6.13393C17.4671 6.00057 17.3144 5.89482 17.1462 5.82278C16.9779 5.75075 16.7975 5.71387 16.6154 5.71429H13.8461V5C13.8461 3.67392 13.3356 2.40215 12.4267 1.46447C11.5179 0.526784 10.2853 0 9 0C7.71472 0 6.48208 0.526784 5.57325 1.46447C4.66442 2.40215 4.15384 3.67392 4.15384 5V5.71429H1.38461C1.01739 5.71429 0.66521 5.8648 0.405544 6.13271C0.145879 6.40061 0 6.76398 0 7.14286V16.7857C0 18.5268 1.42788 20 3.11538 20H14.8846C15.7009 20.0003 16.4848 19.671 17.0688 19.0826C17.3627 18.7933 17.5968 18.4456 17.7568 18.0604C17.9168 17.6752 17.9996 17.2606 18 16.8415V7.14286C18.0006 6.95544 17.9651 6.76977 17.8956 6.59659C17.8262 6.42341 17.7242 6.26615 17.5954 6.13393ZM5.53846 5C5.53846 4.0528 5.90316 3.14439 6.55232 2.47462C7.20148 1.80485 8.08194 1.42857 9 1.42857C9.91805 1.42857 10.7985 1.80485 11.4477 2.47462C12.0968 3.14439 12.4615 4.0528 12.4615 5V5.71429H5.53846V5ZM13.8461 9.28571C13.8461 10.6118 13.3356 11.8836 12.4267 12.8212C11.5179 13.7589 10.2853 14.2857 9 14.2857C7.71472 14.2857 6.48208 13.7589 5.57325 12.8212C4.66442 11.8836 4.15384 10.6118 4.15384 9.28571V8.57143C4.15384 8.38199 4.22678 8.20031 4.35662 8.06635C4.48645 7.9324 4.66254 7.85714 4.84615 7.85714C5.02976 7.85714 5.20585 7.9324 5.33569 8.06635C5.46552 8.20031 5.53846 8.38199 5.53846 8.57143V9.28571C5.53846 10.2329 5.90316 11.1413 6.55232 11.8111C7.20148 12.4809 8.08194 12.8571 9 12.8571C9.91805 12.8571 10.7985 12.4809 11.4477 11.8111C12.0968 11.1413 12.4615 10.2329 12.4615 9.28571V8.57143C12.4615 8.38199 12.5345 8.20031 12.6643 8.06635C12.7941 7.9324 12.9702 7.85714 13.1538 7.85714C13.3375 7.85714 13.5135 7.9324 13.6434 8.06635C13.7732 8.20031 13.8461 8.38199 13.8461 8.57143V9.28571Z" fill="#172027"/>
</svg>
