<svg width="20" height="20" viewBox="0 0 20 20" fill="none" xmlns="http://www.w3.org/2000/svg">
<g clip-path="url(#clip0_502_15150)">
<path d="M10.2317 3.43821C10.1696 3.37781 10.0871 3.3441 10.0012 3.3441C9.9154 3.3441 9.83286 3.37781 9.77083 3.43821L2.10001 10.897C2.06743 10.9287 2.04152 10.9668 2.02383 11.009C2.00614 11.0512 1.99704 11.0967 1.99709 11.1425L1.99584 18.1429C1.99584 18.5028 2.13632 18.848 2.38637 19.1025C2.63642 19.357 2.97555 19.5 3.32917 19.5H7.33333C7.51014 19.5 7.67971 19.4285 7.80473 19.3013C7.92976 19.174 8 19.0014 8 18.8214V13.0536C8 12.9636 8.03512 12.8773 8.09763 12.8137C8.16014 12.75 8.24492 12.7143 8.33333 12.7143H11.6667C11.7551 12.7143 11.8398 12.75 11.9024 12.8137C11.9649 12.8773 12 12.9636 12 13.0536V18.8214C12 19.0014 12.0702 19.174 12.1952 19.3013C12.3203 19.4285 12.4898 19.5 12.6667 19.5H16.6691C17.0228 19.5 17.3619 19.357 17.6119 19.1025C17.862 18.848 18.0025 18.5028 18.0025 18.1429V11.1425C18.0025 11.0967 17.9934 11.0512 17.9757 11.009C17.958 10.9668 17.9321 10.9287 17.8996 10.897L10.2317 3.43821Z" fill="#A9B5C1"/>
<path d="M19.7879 9.49743L16.6712 6.46252V1.85714C16.6712 1.67717 16.601 1.50458 16.476 1.37732C16.3509 1.25006 16.1814 1.17857 16.0046 1.17857H14.0046C13.8278 1.17857 13.6582 1.25006 13.5332 1.37732C13.4081 1.50458 13.3379 1.67717 13.3379 1.85714V3.21429L10.9246 0.86558C10.6987 0.63317 10.3629 0.5 9.99999 0.5C9.63833 0.5 9.30333 0.63317 9.07749 0.866005L0.215015 9.49659C-0.0441508 9.75105 -0.0766507 10.1696 0.159182 10.4453C0.218403 10.5149 0.290916 10.5715 0.372306 10.6116C0.453696 10.6518 0.542263 10.6747 0.632614 10.6789C0.722966 10.6831 0.813214 10.6685 0.897865 10.6361C0.982516 10.6037 1.0598 10.5541 1.12501 10.4903L9.77083 2.08107C9.83286 2.02067 9.9154 1.98696 10.0012 1.98696C10.0871 1.98696 10.1696 2.02067 10.2317 2.08107L18.8783 10.4903C19.0057 10.6146 19.1763 10.6824 19.3527 10.6789C19.5292 10.6754 19.697 10.6009 19.8196 10.4716C20.0754 10.2019 20.0541 9.75656 19.7879 9.49743Z" fill="#A9B5C1"/>
</g>
<defs>
<clipPath id="clip0_502_15150">
<rect width="20" height="20" fill="white"/>
</clipPath>
</defs>
</svg>
