<svg width="19" height="20" viewBox="0 0 19 20" fill="none" xmlns="http://www.w3.org/2000/svg">
<path d="M9.18604 10C10.1445 10 11.0815 9.70676 11.8784 9.15735C12.6754 8.60794 13.2965 7.82705 13.6633 6.91342C14.0301 5.99979 14.1261 4.99445 13.9391 4.02455C13.7521 3.05465 13.2905 2.16373 12.6128 1.46447C11.935 0.765206 11.0715 0.289002 10.1315 0.0960758C9.19141 -0.0968502 8.21701 0.00216642 7.33149 0.380605C6.44597 0.759043 5.68911 1.3999 5.15661 2.22215C4.6241 3.0444 4.33988 4.0111 4.33988 5C4.33988 6.32608 4.85046 7.59785 5.75929 8.53553C6.66812 9.47322 7.90076 10 9.18604 10ZM9.18604 11.4286C6.18229 11.4286 0.186035 13.3429 0.186035 17.1429V20H18.186V17.1429C18.186 13.3429 12.1898 11.4286 9.18604 11.4286Z" fill="#172027"/>
</svg>
