<svg width="17" height="20" viewBox="0 0 17 20" fill="none" xmlns="http://www.w3.org/2000/svg">
<path d="M4.46831 0C3.2835 -5.33333e-08 2.14557 0.486408 1.30858 1.34375C0.471579 2.20109 -6.5365e-08 3.36028 0 4.57161V10.6693C0.00127436 11.0376 0.296367 11.3347 0.65748 11.3333H5.88795H6.53905H6.54416V4.67057C6.54416 2.83815 7.36626 1.12755 8.74257 0H4.57938H4.46831ZM12.4206 0.00520833C11.6302 0.00520833 10.8398 0.213928 10.1328 0.630208C8.71837 1.46312 7.84635 3.0038 7.84635 4.67057V11.3333H10.4622H16.3438C16.7049 11.3347 16.9987 11.0376 17 10.6693V4.67057C17 4.46177 16.986 4.25447 16.9591 4.05078C16.9324 3.84768 16.892 3.64834 16.8404 3.45312C16.8191 3.37311 16.7867 3.29727 16.7613 3.21875C16.6617 2.91307 16.5395 2.6166 16.3821 2.33854C16.2834 2.16413 16.1739 1.99627 16.054 1.83594C15.998 1.76102 15.932 1.69386 15.8714 1.6224C15.802 1.54073 15.7372 1.45573 15.6621 1.37891C15.3809 1.09131 15.0608 0.838448 14.7071 0.630208C14.226 0.346919 13.7058 0.167498 13.1739 0.0768229C12.9811 0.0498567 12.7878 0.032286 12.5942 0.0247396C12.5894 0.0230396 12.585 0.0211112 12.5802 0.0195312C12.5605 0.0151284 12.5402 0.0141208 12.5202 0.0117187C12.4869 0.0109784 12.4539 0.0052084 12.4206 0.00520833ZM10.3946 4.67057C10.4171 4.66938 10.4397 4.66938 10.4622 4.67057H14.3841C14.555 4.67444 14.7175 4.74637 14.837 4.87098C14.9565 4.99558 15.0234 5.16295 15.0234 5.33724C15.0234 5.51153 14.9565 5.6789 14.837 5.8035C14.7175 5.9281 14.555 6.00004 14.3841 6.0039H10.4622C10.2912 6.0091 10.1249 5.94576 9.99905 5.82746C9.87321 5.70917 9.79779 5.54531 9.78895 5.37099C9.7801 5.19668 9.83853 5.02576 9.95173 4.89484C10.0649 4.76392 10.2239 4.68342 10.3946 4.67057ZM6.53905 12.668V19.3359C6.54036 19.7042 6.83414 20.0014 7.19525 20H9.15365C9.51288 19.9987 9.80347 19.7023 9.80475 19.3359V12.668H6.53905Z" fill="#172027"/>
</svg>
