<svg width="20" height="20" viewBox="0 0 20 20" fill="none" xmlns="http://www.w3.org/2000/svg">
<path d="M10 6.52174C9.29358 6.52174 8.60302 6.72574 8.01565 7.10793C7.42828 7.49013 6.97048 8.03336 6.70014 8.66893C6.42981 9.3045 6.35908 10.0039 6.49689 10.6786C6.63471 11.3533 6.97488 11.9731 7.4744 12.4595C7.97392 12.9459 8.61034 13.2772 9.30319 13.4114C9.99604 13.5456 10.7142 13.4768 11.3668 13.2135C12.0195 12.9502 12.5773 12.5044 12.9698 11.9324C13.3623 11.3604 13.5717 10.6879 13.5717 10C13.5689 9.07835 13.1917 8.19524 12.5225 7.54354C11.8533 6.89183 10.9464 6.52449 10 6.52174ZM17.7114 10C17.7095 10.325 17.6851 10.6495 17.6382 10.9713L19.812 12.6287C19.9067 12.7048 19.9705 12.8113 19.992 12.929C20.0135 13.0467 19.9913 13.168 19.9294 13.2713L17.873 16.7287C17.8105 16.831 17.7129 16.9086 17.5974 16.9479C17.482 16.9871 17.356 16.9854 17.2417 16.943L14.6857 15.943C14.1534 16.3422 13.571 16.6734 12.9525 16.9287L12.5703 19.5713C12.5489 19.6897 12.486 19.7971 12.3923 19.8753C12.2985 19.9535 12.1798 19.9976 12.0564 20H7.94357C7.82242 19.9977 7.70565 19.9555 7.61232 19.8802C7.51899 19.805 7.45461 19.7011 7.42969 19.5857L7.04751 16.943C6.42731 16.6907 5.84444 16.3589 5.31433 15.9565L2.7583 16.9565C2.64404 16.9989 2.51811 17.0006 2.40265 16.9615C2.28718 16.9224 2.18958 16.8449 2.127 16.7426L0.0705681 13.2857C0.00866889 13.1824 -0.0135068 13.0611 0.00800384 12.9433C0.0295145 12.8256 0.0933097 12.7192 0.187989 12.643L2.36184 10.9857C2.31547 10.659 2.29101 10.3298 2.28862 10C2.29048 9.67499 2.31494 9.35048 2.36184 9.0287L0.187989 7.3713C0.0933097 7.29517 0.0295145 7.18874 0.00800384 7.07102C-0.0135068 6.95329 0.00866889 6.83196 0.0705681 6.7287L2.127 3.2713C2.18951 3.16895 2.28708 3.09135 2.40255 3.05214C2.51803 3.01294 2.64399 3.01464 2.7583 3.05696L5.31433 4.05696C5.84657 3.65783 6.42902 3.3266 7.04751 3.0713L7.42969 0.428696C7.45108 0.310326 7.51402 0.202863 7.60774 0.124671C7.70147 0.0464798 7.82018 0.0024125 7.94357 0H12.0564C12.1776 0.00229632 12.2943 0.0445179 12.3877 0.119772C12.481 0.195027 12.5454 0.298869 12.5703 0.414348L12.9525 3.05696C13.5735 3.30912 14.1571 3.64089 14.6879 4.04348L17.2417 3.04348C17.356 3.00113 17.4819 2.99936 17.5974 3.03848C17.7128 3.07761 17.8104 3.15512 17.873 3.25739L19.9294 6.71478C19.9913 6.81805 20.0135 6.93938 19.992 7.0571C19.9705 7.17482 19.9067 7.28126 19.812 7.35739L17.6382 9.01478C17.6845 9.34129 17.709 9.67039 17.7114 10Z" fill="#172027"/>
</svg>
