<svg width="20" height="15" viewBox="0 0 20 15" fill="none" xmlns="http://www.w3.org/2000/svg">
<path d="M18.1818 6.9V12.3C18.1818 12.5387 18.086 12.7676 17.9156 12.9364C17.7451 13.1052 17.5138 13.2 17.2727 13.2L2.72727 13.2C2.48617 13.2 2.25494 13.1052 2.08445 12.9364C1.91396 12.7676 1.81818 12.5387 1.81818 12.3L1.81818 6.9C1.81818 6.66131 1.7224 6.43239 1.55192 6.2636C1.38143 6.09482 1.1502 6 0.909091 6C0.667985 6 0.436754 6.09482 0.266267 6.2636C0.0957789 6.43239 0 6.66131 0 6.9L0 12.3C0 13.0161 0.287337 13.7028 0.7988 14.2092C1.31026 14.7155 2.00395 15 2.72727 15L17.2727 15C17.996 15 18.6897 14.7155 19.2012 14.2092C19.7127 13.7028 20 13.0161 20 12.3V6.9C20 6.66131 19.9042 6.43239 19.7337 6.2636C19.5632 6.09482 19.332 6 19.0909 6C18.8498 6 18.6186 6.09482 18.4481 6.2636C18.2776 6.43239 18.1818 6.66131 18.1818 6.9Z" fill="#172027"/>
<path d="M9.00014 9.0905V3.09687L6.7124 5.18873C6.61925 5.27353 6.50867 5.3408 6.38697 5.38669C6.26527 5.43258 6.13483 5.45621 6.0031 5.45621C5.87137 5.45621 5.74093 5.43258 5.61923 5.38669C5.49753 5.3408 5.38695 5.27353 5.2938 5.18873C5.20065 5.10393 5.12677 5.00325 5.07636 4.89246C5.02595 4.78166 5 4.66291 5 4.54298C5 4.42305 5.02595 4.3043 5.07636 4.1935C5.12677 4.08271 5.20065 3.98203 5.2938 3.89723L9.28985 0.259221C9.38486 0.176419 9.49689 0.111512 9.61952 0.0682249C9.86274 -0.0227423 10.1356 -0.0227423 10.3788 0.0682249C10.5014 0.111512 10.6134 0.176419 10.7084 0.259221L14.7045 3.89723C14.7981 3.98178 14.8725 4.08238 14.9232 4.19321C14.9739 4.30404 15 4.42292 15 4.54298C15 4.66305 14.9739 4.78192 14.9232 4.89275C14.8725 5.00359 14.7981 5.10418 14.7045 5.18873C14.6116 5.27397 14.5011 5.34164 14.3794 5.38781C14.2577 5.43398 14.1271 5.45776 13.9952 5.45776C13.8633 5.45776 13.7327 5.43398 13.611 5.38781C13.4893 5.34164 13.3788 5.27397 13.2859 5.18873L10.9982 3.09687V9.0905C10.9982 9.33171 10.8929 9.56305 10.7056 9.73361C10.5182 9.90418 10.2641 10 9.99915 10C9.73419 10 9.48009 9.90418 9.29274 9.73361C9.10539 9.56305 9.00014 9.33171 9.00014 9.0905Z" fill="#172027"/>
</svg>
